<svg id="artwork" xmlns="http://www.w3.org/2000/svg" xmlns:xlink="http://www.w3.org/1999/xlink" viewBox="0 0 155 46.43"><defs><style>.cls-1,.cls-2,.cls-9{fill:#fff;}.cls-1{stroke:#fff;stroke-miterlimit:10;stroke-width:0.2px;}.cls-3{fill:url(#linear-gradient);}.cls-4{fill:url(#linear-gradient-2);}.cls-5{fill:url(#linear-gradient-3);}.cls-6{fill:url(#linear-gradient-4);}.cls-7{opacity:0.2;}.cls-7,.cls-8,.cls-9{isolation:isolate;}.cls-8{opacity:0.12;}.cls-9{opacity:0.25;}</style><linearGradient id="linear-gradient" x1="25.03" y1="191.75" x2="5.76" y2="172.48" gradientTransform="matrix(1, 0, 0, -1, 0, 202)" gradientUnits="userSpaceOnUse"><stop offset="0" stop-color="#00a0ff"/><stop offset="0.01" stop-color="#00a1ff"/><stop offset="0.26" stop-color="#00beff"/><stop offset="0.51" stop-color="#00d2ff"/><stop offset="0.76" stop-color="#00dfff"/><stop offset="1" stop-color="#00e3ff"/></linearGradient><linearGradient id="linear-gradient-2" x1="38.85" y1="178.79" x2="11.07" y2="178.79" gradientTransform="matrix(1, 0, 0, -1, 0, 202)" gradientUnits="userSpaceOnUse"><stop offset="0" stop-color="#ffe000"/><stop offset="0.41" stop-color="#ffbd00"/><stop offset="0.78" stop-color="orange"/><stop offset="1" stop-color="#ff9c00"/></linearGradient><linearGradient id="linear-gradient-3" x1="28.5" y1="176.15" x2="2.38" y2="150.02" gradientTransform="matrix(1, 0, 0, -1, 0, 202)" gradientUnits="userSpaceOnUse"><stop offset="0" stop-color="#ff3a44"/><stop offset="1" stop-color="#c31162"/></linearGradient><linearGradient id="linear-gradient-4" x1="8.38" y1="201.55" x2="20.05" y2="189.88" gradientTransform="matrix(1, 0, 0, -1, 0, 202)" gradientUnits="userSpaceOnUse"><stop offset="0" stop-color="#32a071"/><stop offset="0.07" stop-color="#2da771"/><stop offset="0.48" stop-color="#15cf74"/><stop offset="0.8" stop-color="#06e775"/><stop offset="1" stop-color="#00f076"/></linearGradient></defs><title>Artboard 1</title><rect y="0.25" width="155" height="45.93" rx="5.74" ry="5.74"/><path class="cls-1" d="M54.44,12a3.11,3.11,0,0,1-.85,2.3,3.34,3.34,0,0,1-2.53,1,3.54,3.54,0,0,1-3.58-3.6,3.55,3.55,0,0,1,3.58-3.6,3.59,3.59,0,0,1,1.41.29,2.82,2.82,0,0,1,1.08.77l-.61.61A2.3,2.3,0,0,0,51.06,9a2.59,2.59,0,0,0-1.88.76,2.65,2.65,0,0,0-.8,2,2.64,2.64,0,0,0,.8,2,2.74,2.74,0,0,0,3.8,0,2.14,2.14,0,0,0,.58-1.39h-2.5v-.83H54.4A3.12,3.12,0,0,1,54.44,12Z"/><path class="cls-1" d="M59.74,9.13H56.6v2.19h2.83v.83H56.6v2.18h3.14v.85h-4V8.29h4Z"/><path class="cls-1" d="M63.47,15.18h-.89v-6H60.66V8.29h4.73v.84H63.47Z"/><path class="cls-1" d="M68.82,15.18V8.29h.88v6.89Z"/><path class="cls-1" d="M73.63,15.18h-.89v-6H70.82V8.29h4.73v.84H73.63Z"/><path class="cls-1" d="M84.51,14.29a3.37,3.37,0,0,1-2.52,1,3.41,3.41,0,0,1-2.53-1,3.56,3.56,0,0,1-1-2.56,3.52,3.52,0,0,1,1-2.55,3.56,3.56,0,0,1,5.05,0,3.52,3.52,0,0,1,1,2.55A3.53,3.53,0,0,1,84.51,14.29Zm-4.39-.58a2.66,2.66,0,0,0,3.74,0,2.71,2.71,0,0,0,.77-2,2.71,2.71,0,0,0-.77-2,2.66,2.66,0,0,0-3.74,0,2.71,2.71,0,0,0-.77,2A2.71,2.71,0,0,0,80.12,13.71Z"/><path class="cls-1" d="M86.77,15.18V8.29h1.08l3.35,5.36h0l0-1.33v-4h.88v6.89h-.92l-3.5-5.62h0l0,1.32v4.3Z"/><path class="cls-2" d="M78.23,25.22a4.89,4.89,0,1,0,4.9,4.89A4.82,4.82,0,0,0,78.23,25.22Zm0,7.85a3,3,0,1,1,2.76-3A2.83,2.83,0,0,1,78.23,33.07ZM67.54,25.22a4.89,4.89,0,1,0,4.9,4.89A4.82,4.82,0,0,0,67.54,25.22Zm0,7.85a3,3,0,1,1,2.75-3A2.83,2.83,0,0,1,67.54,33.07ZM54.82,26.72v2.07h5a4.27,4.27,0,0,1-1.12,2.61,5.1,5.1,0,0,1-3.83,1.52,5.52,5.52,0,0,1,0-11,5.27,5.27,0,0,1,3.73,1.48L60,21.91a7.21,7.21,0,0,0-5.19-2.09,7.59,7.59,0,1,0,0,15.17,6.93,6.93,0,0,0,5.29-2.13A6.83,6.83,0,0,0,61.9,28a7.17,7.17,0,0,0-.11-1.3Zm52,1.61a4.55,4.55,0,0,0-4.18-3.11,4.64,4.64,0,0,0-4.61,4.89A4.78,4.78,0,0,0,102.9,35,4.87,4.87,0,0,0,107,32.83l-1.67-1.11a2.78,2.78,0,0,1-2.4,1.35,2.49,2.49,0,0,1-2.37-1.48l6.53-2.7ZM100.18,30a2.67,2.67,0,0,1,2.55-2.85,1.89,1.89,0,0,1,1.81,1Zm-5.31,4.73H97V20.34H94.87Zm-3.51-8.37h-.08a3.35,3.35,0,0,0-2.57-1.1,4.89,4.89,0,0,0,0,9.77,3.32,3.32,0,0,0,2.57-1.11h.08v.7c0,1.87-1,2.87-2.61,2.87a2.69,2.69,0,0,1-2.46-1.74l-1.87.78a4.66,4.66,0,0,0,4.33,2.88c2.51,0,4.64-1.48,4.64-5.08V25.52h-2ZM88.9,33.07a3,3,0,0,1,0-5.92,2.75,2.75,0,0,1,2.6,3A2.72,2.72,0,0,1,88.9,33.07Zm28-12.73h-5.14V34.69h2.15V29.26h3a4.47,4.47,0,1,0,0-8.92Zm0,6.92h-3V22.34h3a2.46,2.46,0,1,1,0,4.92Zm13.24-2.06a4,4,0,0,0-3.82,2.2l1.9.79a2.32,2.32,0,0,1,4.21.79v.15a4.74,4.74,0,0,0-2.23-.55c-2.05,0-4.14,1.12-4.14,3.23A3.32,3.32,0,0,0,129.67,35a3,3,0,0,0,2.73-1.41h.07v1.11h2.07v-5.5C134.54,26.62,132.64,25.2,130.18,25.2Zm-.25,7.86c-.71,0-1.69-.35-1.69-1.21,0-1.11,1.22-1.54,2.28-1.54a3.86,3.86,0,0,1,1.95.48A2.59,2.59,0,0,1,129.93,33.06Zm12.15-7.55-2.46,6.22h-.07L137,25.51h-2.31l3.82,8.7-2.18,4.84h2.24l5.89-13.54Zm-19.3,9.18h2.14V20.34h-2.14Z"/><path class="cls-3" d="M12,8.9a2.35,2.35,0,0,0-.53,1.62V35.91A2.3,2.3,0,0,0,12,37.52l.09.09L26.29,23.38v-.33L12.07,8.82Z"/><path class="cls-4" d="M31,28.13l-4.74-4.75v-.33L31,18.3l.11.06,5.62,3.2c1.6.91,1.6,2.4,0,3.31l-5.62,3.19Z"/><path class="cls-5" d="M31.14,28.06l-4.85-4.85L12,37.52a1.87,1.87,0,0,0,2.39.07l16.77-9.53"/><path class="cls-6" d="M31.14,18.36,14.37,8.83A1.88,1.88,0,0,0,12,8.9L26.29,23.21Z"/><path class="cls-7" d="M31,28,14.37,37.43a1.91,1.91,0,0,1-2.3,0h0l-.09.08h0l.09.09h0a1.91,1.91,0,0,0,2.3,0l16.77-9.53Z"/><path class="cls-8" d="M12,37.36a2.35,2.35,0,0,1-.53-1.62v.17A2.3,2.3,0,0,0,12,37.52l.09-.08Z"/><path class="cls-8" d="M36.76,24.7,31,28l.11.1,5.62-3.19A2,2,0,0,0,38,23.21h0A2.11,2.11,0,0,1,36.76,24.7Z"/><path class="cls-9" d="M14.37,9,36.76,21.72A2.15,2.15,0,0,1,38,23.21h0a2,2,0,0,0-1.2-1.65L14.37,8.83c-1.61-.91-2.92-.15-2.92,1.69v.17C11.45,8.85,12.76,8.09,14.37,9Z"/></svg>