<svg id="artwork" xmlns="http://www.w3.org/2000/svg" viewBox="0 0 155 46.43"><defs><style>.cls-1{fill:#fff;}</style></defs><title>Artboard 1</title><rect y="0.25" width="155" height="45.93" rx="5.74" ry="5.74"/><g id="_Group_" data-name="&lt;Group&gt;"><g id="_Group_2" data-name="&lt;Group&gt;"><g id="_Group_3" data-name="&lt;Group&gt;"><path id="_Path_" data-name="&lt;Path&gt;" class="cls-1" d="M31.41,23.58a6,6,0,0,1,3.1-5,6.84,6.84,0,0,0-5.25-2.62c-2.21-.22-4.35,1.22-5.47,1.22s-2.88-1.2-4.74-1.16a7.05,7.05,0,0,0-5.88,3.31c-2.55,4.06-.65,10,1.79,13.32,1.21,1.61,2.64,3.4,4.5,3.34s2.51-1.07,4.71-1.07,2.82,1.07,4.72,1,3.19-1.62,4.36-3.24a12.93,12.93,0,0,0,2-3.75A5.91,5.91,0,0,1,31.41,23.58Z"/><path id="_Path_2" data-name="&lt;Path&gt;" class="cls-1" d="M27.82,13.76a5.6,5.6,0,0,0,1.46-4.24,6.72,6.72,0,0,0-4.21,2,5.32,5.32,0,0,0-1.5,4.08A5.62,5.62,0,0,0,27.82,13.76Z"/></g></g><path class="cls-1" d="M54.46,31.88H48.24L46.74,36H44.11L50,20.88h2.74L58.63,36H56ZM48.88,30h4.93l-2.43-6.61h-.07Z"/><path class="cls-1" d="M71.36,30.46c0,3.41-2,5.61-5,5.61a4.1,4.1,0,0,1-3.74-1.93h-.06v5.45H60.15V25h2.36v1.83h.05a4.29,4.29,0,0,1,3.79-1.94C69.37,24.85,71.36,27.05,71.36,30.46Zm-2.51,0c0-2.23-1.25-3.69-3.15-3.69s-3.12,1.49-3.12,3.69,1.26,3.69,3.12,3.69S68.85,32.7,68.85,30.46Z"/><path class="cls-1" d="M84.46,30.46c0,3.41-2,5.61-5,5.61a4.09,4.09,0,0,1-3.74-1.93h-.06v5.45H73.25V25h2.36v1.83h0a4.29,4.29,0,0,1,3.79-1.94C82.47,24.85,84.46,27.05,84.46,30.46Zm-2.51,0c0-2.23-1.25-3.69-3.15-3.69s-3.12,1.49-3.12,3.69,1.25,3.69,3.12,3.69S82,32.7,82,30.46Z"/><path class="cls-1" d="M93.11,31.75c.18,1.5,1.76,2.48,3.91,2.48s3.54-1,3.54-2.33c0-1.17-.9-1.87-3-2.35l-2.12-.47c-3-.67-4.39-2-4.39-4.07,0-2.6,2.46-4.38,5.94-4.38s5.82,1.78,5.9,4.38h-2.47c-.15-1.5-1.49-2.41-3.46-2.41s-3.32.92-3.32,2.26c0,1.06.86,1.69,3,2.17l1.8.41c3.35.73,4.74,2,4.74,4.18,0,2.82-2.44,4.58-6.3,4.58-3.62,0-6.07-1.72-6.23-4.45Z"/><path class="cls-1" d="M108.41,22.36V25h2.26v1.79h-2.26v6.06c0,.94.45,1.38,1.45,1.38a8,8,0,0,0,.8-.06v1.78a7.55,7.55,0,0,1-1.36.1c-2.41,0-3.35-.83-3.35-3v-6.3h-1.73V25H106v-2.6Z"/><path class="cls-1" d="M112,30.46a5.65,5.65,0,0,1,11.29,0,5.65,5.65,0,0,1-11.29,0Zm8.8,0c0-2.37-1.17-3.77-3.15-3.77s-3.16,1.41-3.16,3.77,1.18,3.77,3.16,3.77S120.78,32.84,120.78,30.46Z"/><path class="cls-1" d="M125.29,25h2.33v1.87h0a2.82,2.82,0,0,1,2.87-2,4.13,4.13,0,0,1,.83.08V27a3.75,3.75,0,0,0-1.1-.14,2.36,2.36,0,0,0-2.54,2.53V36h-2.44Z"/><path class="cls-1" d="M142.64,32.72c-.33,2-2.44,3.37-5.13,3.37-3.46,0-5.61-2.14-5.61-5.58s2.16-5.68,5.51-5.68,5.36,2.09,5.36,5.42V31h-8.4v.14a3,3,0,0,0,3.2,3.11,2.73,2.73,0,0,0,2.75-1.55Zm-8.26-3.28h6a2.76,2.76,0,0,0-2.92-2.79A2.9,2.9,0,0,0,134.38,29.44Z"/></g><g id="_Group_4" data-name="&lt;Group&gt;"><path class="cls-1" d="M48.57,9.53a3.33,3.33,0,0,1,3.69,3.6,3.34,3.34,0,0,1-3.69,3.65H45.74V9.53ZM47,15.75h1.48A2.35,2.35,0,0,0,51,13.15a2.36,2.36,0,0,0-2.58-2.59H47Z"/><path class="cls-1" d="M53.64,14a2.79,2.79,0,1,1,5.58,0,2.79,2.79,0,1,1-5.58,0ZM58,14c0-1.18-.57-1.88-1.59-1.88s-1.58.7-1.58,1.88.57,1.88,1.58,1.88S58,15.23,58,14Z"/><path class="cls-1" d="M66.64,16.78H65.43l-1.22-4h-.09l-1.22,4H61.7l-1.63-5.47h1.18l1.06,4.17h.09l1.22-4.17h1.12L66,15.48h.1l1-4.17h1.17Z"/><path class="cls-1" d="M69.64,11.31h1.13v.87h.08a1.79,1.79,0,0,1,1.77-1,1.84,1.84,0,0,1,2,2v3.54H73.5V13.51c0-.88-.41-1.32-1.28-1.32a1.31,1.31,0,0,0-1.41,1.39v3.2H69.64Z"/><path class="cls-1" d="M76.53,9.18H77.7v7.6H76.53Z"/><path class="cls-1" d="M79.32,14a2.79,2.79,0,1,1,5.58,0,2.79,2.79,0,1,1-5.58,0Zm4.38,0c0-1.18-.57-1.88-1.59-1.88s-1.58.7-1.58,1.88.57,1.88,1.58,1.88S83.7,15.23,83.7,14Z"/><path class="cls-1" d="M86.13,15.23c0-1,.8-1.55,2.21-1.63l1.6-.09V13c0-.57-.41-.9-1.21-.9s-1.11.22-1.24.61H86.36c.12-.94,1.08-1.54,2.42-1.54s2.32.68,2.32,1.83v3.74H90V16h-.09a2,2,0,0,1-1.78.86C87,16.87,86.13,16.23,86.13,15.23Zm3.81-.47v-.45l-1.45.08c-.81,0-1.18.31-1.18.79s.46.78,1.1.78C89.29,16,89.94,15.44,89.94,14.76Z"/><path class="cls-1" d="M92.64,14c0-1.73,1-2.82,2.45-2.82a2,2,0,0,1,1.82,1H97v-3h1.17v7.6H97.05v-.87H97a2.09,2.09,0,0,1-1.86,1C93.59,16.87,92.64,15.77,92.64,14Zm1.2,0c0,1.16.6,1.86,1.59,1.86S97,15.19,97,14.05s-.62-1.86-1.59-1.86S93.84,12.89,93.84,14Z"/><path class="cls-1" d="M103,14a2.79,2.79,0,1,1,5.58,0A2.79,2.79,0,1,1,103,14Zm4.38,0c0-1.18-.58-1.88-1.59-1.88s-1.59.7-1.59,1.88.58,1.88,1.59,1.88S107.38,15.23,107.38,14Z"/><path class="cls-1" d="M110.15,11.31h1.12v.87h.09a1.79,1.79,0,0,1,1.77-1,1.84,1.84,0,0,1,2,2v3.54H114V13.51c0-.88-.42-1.32-1.28-1.32a1.31,1.31,0,0,0-1.41,1.39v3.2h-1.17Z"/><path class="cls-1" d="M121.78,10v1.39h1.28v.9h-1.28v2.81c0,.58.25.83.83.83a3.29,3.29,0,0,0,.45,0v.9a4.1,4.1,0,0,1-.64.06c-1.3,0-1.81-.43-1.81-1.48V12.24h-.94v-.9h.94V10Z"/><path class="cls-1" d="M124.65,9.18h1.16v3h.09a2.08,2.08,0,0,1,3.85,1.06v3.53h-1.17V13.51a1.15,1.15,0,0,0-1.27-1.31,1.33,1.33,0,0,0-1.49,1.38v3.2h-1.17Z"/><path class="cls-1" d="M136.56,15.3A2.4,2.4,0,0,1,134,16.88a2.57,2.57,0,0,1-2.73-2.82A2.6,2.6,0,0,1,134,11.21,2.48,2.48,0,0,1,136.63,14v.38h-4.18v.06A1.5,1.5,0,0,0,134,16a1.43,1.43,0,0,0,1.4-.66Zm-4.11-1.76h3A1.38,1.38,0,0,0,134,12.12,1.46,1.46,0,0,0,132.45,13.54Z"/></g></svg>