<svg xmlns="http://www.w3.org/2000/svg" viewBox="0 0 68.64 62.88">
	<defs>
		<style>.cls-1{fill:#fdc99b;}</style>
	</defs>
	<title>Asset 4</title>
	<g id="Layer_2" data-name="Layer 2">
		<g id="Layer_1-2" data-name="Layer 1">
			<path class="cls-1" d="M15.25,3.9A13.88,13.88,0,0,1,24.38,0a15.3,15.3,0,0,1,9.46,2.25c2.68,1.61,4,3.76,4,6.23,0,2-4.62,5.8-10.31,10.42-2.79,2.26-5.59,4.84-8.49,7.63-5.58,5.58-10.2,13.75-10.2,21.59,0,1.08.64,2.36,1.93,3.87a13.94,13.94,0,0,1,2,2.47,2.07,2.07,0,0,1-2.25,1.72c-2.8,0-5.27-1.61-7.41-4.94A23.11,23.11,0,0,1,0,38.92C0,25.28,5.05,13.68,15.25,3.9ZM46,10.46a13.84,13.84,0,0,1,9.13-3.87,15.34,15.34,0,0,1,9.45,2.25c2.69,1.62,4.08,3.76,4.08,6.23,0,2.05-4.62,5.81-10.31,10.42-2.79,2.26-5.59,4.84-8.49,7.63-5.58,5.59-10.2,13.75-10.2,21.59,0,1.08.64,2.37,1.93,3.87a13.94,13.94,0,0,1,2,2.47,2.15,2.15,0,0,1-2.25,1.83c-2.8,0-5.27-1.61-7.41-4.94a23.47,23.47,0,0,1-3.12-12.46C30.83,31.83,35.88,20.12,46,10.46Z"/>
		</g>
	</g>
</svg>
