<svg xmlns="http://www.w3.org/2000/svg" viewBox="0 0 480.24 172" width="123" height="45">
    <defs>
        <style>.cls-1{fill:#f78d2e;}.cls-2{fill:#464646;}.cls-3{fill:#fee600;}</style>
    </defs>
    <title>Asset 1</title>
    <g id="Layer_2" data-name="Layer 2">
        <g id="Layer_1-2" data-name="Layer 1">
        
            <path class="cls-1" d="M229.38,70.35q-35-34.6-70-69.22a3.93,3.93,0,0,0-5.51,0C126.19,28.8,112.4,42.4,84.72,70.07c-3.56,3.57,2,9.09,5.52,5.52,27.68-27.67,41.46-41.27,69.13-68.95h-5.51l70,69.23c3.57,3.54,9.09-2,5.51-5.52Z"/>
            <path class="cls-2" d="M48.89,59.19Q27.11,59.19,15.51,76q-10,14.4-10,37.44t10,37.29q11.59,16.77,33.38,16.77,19.11,0,29.92-11.6,10.5-11.13,10.5-30.55v-4.86H52.18v-4.7H94.32c.1,1,.16,2,.16,3v2.82q0,35.88-24.6,46.38a54.59,54.59,0,0,1-21,4.07q-24.45,0-37.29-17.55Q0,138.63,0,113.4,0,88,11.44,72.35,24.28,54.49,48.89,54.49q15.2,0,26.16,6.42A35.34,35.34,0,0,1,91.19,81.75L86.33,84.1Q78.82,59.18,48.89,59.19Z"/>
            <path class="cls-2" d="M115.79,70.5h5.32v44.74H192.4V70.5h5.17v99.15H192.4V119.94H121.11v49.71h-5.32Z"/>
            <path class="cls-2" d="M280.14,126.56,256,63.1l-24.6,63.46-1.88,4.7-14.72,38.39h-5.17L253,57h6l42.77,112.66h-5.17L282,131.26Z"/>
            <path class="cls-2" d="M318.53,116.38v53.27H313.2V57h37.45q18.63,0,27.41,5.33,11.13,6.9,11.13,24.13,0,21.47-20.37,27.73,14.26,2.82,15.83,19.43.15.78.15,14.57l.16,21.47h-6.11V144.42q0-4.54-.08-7.28c0-1.83-.13-3.16-.23-4q-1.74-10.33-8.78-13.94-5.49-2.82-17.23-2.82Zm34.78-4.71q30.56,0,30.55-24.75,0-20.83-18.95-24.28c-1.47-.21-3.4-.4-5.8-.55s-5.23-.24-8.46-.24H318.53v49.82Z"/>
            <path class="cls-1" d="M438.65,81.2V95.8c-3.87,0-7-.07-9.5-.2a71.17,71.17,0,0,1-8.3-1,12.4,12.4,0,0,1,2.4,4,13.45,13.45,0,0,1,.8,4.6q0,10.61-18.8,23.4-14.81,10-39.19,19.79a304.07,304.07,0,0,1-33.39,11.81q-4,1-16.6,3-8.4,1.22-21.2,2.8-5.19.79-10.4,1.41,5.4-1.41,28.4-9.6,32.19-11.81,56.19-23,33.6-15.6,45.59-27.8L403.25,83.4l8-20q4.61,9.6,7,11.8Q424.64,81.2,438.65,81.2Z"/>
            <path class="cls-1" d="M453.24,95.8h-17.4V81.2c.94,0,1.8,0,2.6.1s1.81.1,3,.1q10.2,0,16.6-.6,10.2-.8,12.59-2.6L461.44,60l8.4-16.6a42.2,42.2,0,0,1,6.8,12,36,36,0,0,1,2.2,12,28.91,28.91,0,0,1-7.5,20.1Q463.84,95.8,453.24,95.8Zm7,25.19-5.6,9-15-11.6,7-11.59,13,10.19,5.6-9.59,15,11.79-7.2,11.6Zm1,9.6,14,10.6L469,152l-14-10.8Z"/>
            <polygon class="cls-3" points="314.22 141.35 314.9 141.35 314.9 141.35 314.22 141.35 314.22 141.35"/>
            <polygon class="cls-2" points="313.21 149.62 313.21 163.72 318.61 163.72 318.61 150.21 313.21 149.62"/>
            <polyline class="cls-2" points="295.82 154.01 300.63 166.25 295.82 167.77 291.43 155.87"/>
        </g>
    </g>
</svg>